<svg xmlns="http://www.w3.org/2000/svg" viewBox="0 0 512 512"><style>#a {fill: #fff} #b {fill: #000} @media (prefers-color-scheme: dark){ #a {fill: #000} #b {fill: #fff}}</style><path id="a" d="M0 0h512v512H0z"/><path fill="#00c950" d="M0 0h256v256H0z"/><path fill="#fd9a00" d="M256 0h128v256H256z"/><path fill="#fb2c36" d="M384 0h128v256H384z"/><path id="b" d="M125 360q-1-6-5-9-3-3-11-3l-9 1-4 3-2 5 1 4 3 3 5 2 7 2 10 2 17 6q7 3 12 8t6 11a37 37 0 0 1-3 32q-6 9-17 13t-26 4-28-5q-10-4-18-14-6-9-6-25h31q0 6 3 10 2 3 7 5 4 3 10 2l9-1 5-4q3-2 2-5 1-3-2-5l-5-3-11-3-12-3q-15-3-25-12-9-7-9-22 0-11 6-20t17-13 26-5 25 5 16 14 6 20zm40-11v-26h104v26h-36v94h-32v-94z"/></svg>